<svg width="18" height="18" viewBox="0 0 18 18" fill="none" xmlns="http://www.w3.org/2000/svg">
<path d="M5.00589 8.9419C4.96817 9.59872 5.47273 10.161 6.12819 10.1988C6.15177 10.1988 6.17535 10.1988 6.19892 10.1988C6.8591 10.1988 7.39196 9.66488 7.38724 9.00333C7.38724 8.34177 6.85439 7.80781 6.19421 7.81253C5.56233 7.81253 5.0389 8.3087 5.00589 8.9419Z" fill="#7293E0"/>
<path d="M0.564136 8.63366C0.351936 8.61948 0.16803 8.78487 0.158599 8.99751C0.149168 9.21016 0.309496 9.39445 0.521696 9.4039C0.733895 9.41807 0.913086 9.25269 0.927233 9.04004C0.94138 8.8274 0.776335 8.64784 0.564136 8.63366Z" fill="#7293E0"/>
<path d="M4.93041 2.01184C5.11903 1.91733 5.19448 1.68106 5.10017 1.49205C5.00586 1.30304 4.77008 1.22743 4.58146 1.32194C4.39283 1.41644 4.31738 1.64799 4.4117 1.837C4.50601 2.03074 4.73707 2.11107 4.93041 2.01184C4.92569 2.01184 4.93041 2.01184 4.93041 2.01184Z" fill="#7293E0"/>
<path d="M6.13701 4.12608C6.42937 3.97959 6.54726 3.62046 6.40108 3.32749C6.2549 3.03452 5.89652 2.91638 5.60415 3.06287C5.31179 3.20936 5.1939 3.56849 5.34008 3.86146C5.48627 4.15443 5.84465 4.27257 6.13701 4.12608Z" fill="#7293E0"/>
<path d="M2.07236 5.57737C2.29871 5.72386 2.60051 5.66243 2.7514 5.43561C2.89759 5.20879 2.83628 4.90637 2.60994 4.75515C2.38359 4.60867 2.0818 4.6701 1.9309 4.89691C1.78 5.12373 1.84602 5.43088 2.07236 5.57737Z" fill="#7293E0"/>
<path d="M2.79418 8.42288C2.4641 8.40398 2.18588 8.65442 2.16702 8.9852C2.14815 9.31597 2.39808 9.59477 2.72817 9.61367C3.05826 9.63257 3.33647 9.38213 3.35533 9.05135C3.3742 8.7253 3.12427 8.44178 2.79418 8.42288Z" fill="#7293E0"/>
<path d="M2.14071 12.4239C1.90022 12.5468 1.8012 12.8397 1.9238 13.0855C2.0464 13.3265 2.33877 13.4257 2.58398 13.3028C2.82447 13.18 2.9235 12.887 2.80089 12.6413C2.67829 12.4003 2.38121 12.301 2.14071 12.4239Z" fill="#7293E0"/>
<path d="M4.45053 7.18943C4.7759 7.40207 5.20973 7.31229 5.41722 6.98624C5.62942 6.66019 5.53982 6.22545 5.21445 6.01753C4.88908 5.80489 4.45525 5.89467 4.24776 6.22072C4.03556 6.54205 4.12516 6.97679 4.45053 7.18943Z" fill="#7293E0"/>
<path d="M11.782 4.07883C12.0555 4.25839 12.428 4.18279 12.6072 3.90871C12.7864 3.63464 12.7109 3.26134 12.4374 3.08177C12.1639 2.90221 11.7914 2.97781 11.6122 3.25189C11.4283 3.53068 11.5037 3.89926 11.782 4.07883Z" fill="#7293E0"/>
<path d="M12.9994 1.97667C13.1786 2.0948 13.4144 2.04282 13.5322 1.86326C13.6501 1.68369 13.5983 1.44742 13.4191 1.32929C13.2399 1.21116 13.0041 1.26313 12.8862 1.43797C12.773 1.61754 12.8249 1.85853 12.9994 1.97667Z" fill="#7293E0"/>
<path d="M11.8716 7.80277C11.2161 7.76497 10.6502 8.27058 10.6172 8.92741C10.5795 9.58424 11.0841 10.1513 11.7395 10.1844C11.7631 10.1844 11.7867 10.1844 11.8055 10.1844C12.461 10.1844 12.9939 9.65039 12.9939 8.98884C12.9986 8.36036 12.5034 7.83585 11.8716 7.80277Z" fill="#7293E0"/>
<path d="M6.5288 7.10249C6.73156 7.50415 7.14182 7.75932 7.59451 7.75932C8.24997 7.75932 8.78283 7.22535 8.78283 6.56379C8.78283 6.37951 8.74039 6.19522 8.65551 6.0251C8.35843 5.43443 7.64166 5.19816 7.05694 5.49586C6.46749 5.79828 6.23172 6.51654 6.5288 7.10249Z" fill="#7293E0"/>
<path d="M15.8601 5.57644C16.1006 5.45358 16.1949 5.15588 16.0723 4.91488C15.9497 4.67389 15.6526 4.57938 15.4121 4.70224C15.1716 4.8251 15.0773 5.11807 15.1952 5.35907C15.3225 5.60006 15.6149 5.69929 15.8601 5.57644Z" fill="#7293E0"/>
<path d="M12.8431 5.95574C12.4989 6.13058 12.3574 6.55113 12.5319 6.89609C12.7063 7.24104 13.126 7.3828 13.4703 7.20796C13.8145 7.03312 13.956 6.61256 13.7815 6.26761C13.607 5.92266 13.1873 5.78562 12.8431 5.95574Z" fill="#7293E0"/>
<path d="M8.95304 1.79608C9.22183 1.81025 9.45289 1.60234 9.47175 1.33299C9.49061 1.06364 9.27841 0.8321 9.00963 0.813199C8.74084 0.799023 8.50978 1.00221 8.49092 1.27156C8.47677 1.54563 8.68425 1.77718 8.95304 1.79608Z" fill="#7293E0"/>
<path d="M8.94913 4.8805C9.3358 4.90412 9.66589 4.60642 9.68475 4.21894C9.70833 3.83146 9.41125 3.50068 9.02457 3.48178C8.6379 3.45816 8.30781 3.75586 8.28895 4.14334C8.27009 4.53082 8.56245 4.86159 8.94913 4.8805Z" fill="#7293E0"/>
<path d="M5.15777 12.046C5.502 11.8711 5.64347 11.4506 5.46899 11.1056C5.29452 10.7607 4.87484 10.6189 4.5306 10.7937C4.18637 10.9686 4.0449 11.3891 4.21937 11.7341C4.39385 12.0791 4.81353 12.2208 5.15777 12.046Z" fill="#7293E0"/>
<path d="M9.40021 5.90588C9.04183 6.45875 9.19273 7.19591 9.74445 7.55504C10.2962 7.91417 11.0318 7.76295 11.3902 7.21008C11.7486 6.65721 11.5977 5.92006 11.0459 5.56093C10.8526 5.43334 10.6263 5.36719 10.3952 5.36719C9.99437 5.36719 9.62184 5.57038 9.40021 5.90588Z" fill="#7293E0"/>
<path d="M11.4719 10.8962C11.1748 10.3055 10.4581 10.0693 9.87334 10.367C9.2839 10.6647 9.04812 11.3829 9.3452 11.9689C9.64228 12.5595 10.359 12.7958 10.9438 12.4981C11.5285 12.2051 11.769 11.4963 11.4766 10.9056C11.4766 10.9009 11.4766 10.9009 11.4719 10.8962Z" fill="#7293E0"/>
<path d="M13.5504 10.8105C13.225 10.5979 12.7912 10.6876 12.5837 11.0137C12.3715 11.3397 12.4611 11.7745 12.7865 11.9824C13.1118 12.195 13.5457 12.1053 13.7532 11.7792C13.9654 11.4579 13.8758 11.0231 13.5504 10.8105Z" fill="#7293E0"/>
<path d="M15.8319 9.0201C15.8508 8.68933 15.6008 8.41053 15.2707 8.39163C14.9407 8.37273 14.6624 8.62317 14.6436 8.95395C14.6247 9.28472 14.8746 9.56352 15.2047 9.58242C15.5301 9.60132 15.813 9.34615 15.8319 9.0201Z" fill="#7293E0"/>
<path d="M17.4782 8.5946C17.266 8.58042 17.0821 8.74581 17.0727 8.95845C17.0632 9.17109 17.2236 9.35538 17.4358 9.36483C17.648 9.37901 17.8271 9.21362 17.8413 9.00098C17.8507 8.78834 17.6904 8.60877 17.4782 8.5946Z" fill="#7293E0"/>
<path d="M15.9282 12.4231C15.7018 12.2766 15.4 12.3381 15.2491 12.5649C15.1029 12.7917 15.1642 13.0941 15.3906 13.2453C15.6169 13.3918 15.9187 13.3304 16.0696 13.1036C16.2205 12.8768 16.1545 12.5696 15.9282 12.4231Z" fill="#7293E0"/>
<path d="M4.99678 16.0246C4.81759 15.9065 4.58181 15.9584 4.46392 16.1333C4.34603 16.3128 4.39791 16.5491 4.57238 16.6673C4.75157 16.7854 4.98735 16.7334 5.10524 16.5586C5.22784 16.3837 5.17597 16.1427 4.99678 16.0246Z" fill="#7293E0"/>
<path d="M13.0688 15.988C12.8801 16.0825 12.8047 16.3187 12.899 16.5077C12.9933 16.6968 13.2291 16.7724 13.4177 16.6779C13.6063 16.5834 13.6818 16.3518 13.5875 16.1628C13.4932 15.9691 13.2621 15.8887 13.0688 15.988C13.0735 15.988 13.0688 15.988 13.0688 15.988Z" fill="#7293E0"/>
<path d="M8.59912 12.0945C8.9575 11.5417 8.8066 10.8045 8.25488 10.4407C7.70316 10.0815 6.96754 10.2327 6.60444 10.7856C6.24134 11.3385 6.39696 12.0756 6.94868 12.4395C7.14201 12.5671 7.36836 12.6332 7.59942 12.6332C8.00496 12.638 8.37749 12.4348 8.59912 12.0945Z" fill="#7293E0"/>
<path d="M6.21734 13.9216C5.94384 13.7421 5.57131 13.8177 5.39212 14.0917C5.21293 14.3658 5.28837 14.7391 5.56188 14.9187C5.83538 15.0982 6.20791 15.0226 6.3871 14.7486C6.571 14.4745 6.49555 14.1012 6.21734 13.9216Z" fill="#7293E0"/>
<path d="M8.99546 16.2038C8.72668 16.1896 8.49562 16.3975 8.47675 16.6669C8.45789 16.9362 8.67009 17.1678 8.93888 17.1867C9.20766 17.2009 9.43872 16.9977 9.45759 16.7283C9.47173 16.4543 9.26425 16.2227 8.99546 16.2038Z" fill="#7293E0"/>
<path d="M8.99963 13.1185C8.61296 13.0949 8.28287 13.3926 8.26401 13.7801C8.24043 14.1675 8.53751 14.4983 8.92418 14.5172C9.31086 14.5361 9.64095 14.2431 9.65981 13.8557C9.68339 13.4729 9.38631 13.1374 8.99963 13.1185Z" fill="#7293E0"/>
<path d="M11.8623 13.8735C11.5699 14.0247 11.452 14.3839 11.6029 14.6769C11.7538 14.9698 12.1122 15.088 12.4045 14.9367C12.6969 14.7903 12.8148 14.4311 12.6686 14.1382C12.5177 13.8452 12.1593 13.7223 11.8623 13.8735Z" fill="#7293E0"/>
</svg>
