<svg width="30" height="30" viewBox="0 0 30 30" fill="none" xmlns="http://www.w3.org/2000/svg">
<path fill-rule="evenodd" clip-rule="evenodd" d="M17.1433 2.16959C16.7348 -0.245308 13.2653 -0.245308 12.8567 2.16959C12.564 3.90023 10.4467 4.58818 9.19261 3.36014C7.44267 1.64657 4.63575 3.68592 5.72469 5.87973C6.50509 7.45193 5.19654 9.25299 3.46013 8.99663C1.03719 8.6389 -0.0349582 11.9386 2.1355 13.0734C3.69098 13.8866 3.69098 16.1129 2.1355 16.9261C-0.0349591 18.0609 1.03719 21.3606 3.46013 21.0029C5.19654 20.7465 6.50509 22.5476 5.72469 24.1198C4.63575 26.3136 7.44267 28.3529 9.19261 26.6394C10.4467 25.4113 12.564 26.0993 12.8567 27.8299C13.2653 30.2448 16.7348 30.2448 17.1433 27.8299C17.4361 26.0993 19.5534 25.4113 20.8075 26.6394C22.5574 28.3529 25.3643 26.3136 24.2754 24.1198C23.495 22.5476 24.8035 20.7465 26.5399 21.0029C28.9629 21.3606 30.035 18.0609 27.8646 16.9261C26.3091 16.1129 26.3091 13.8866 27.8646 13.0734C30.035 11.9386 28.9629 8.6389 26.5399 8.99663C24.8035 9.25299 23.495 7.45193 24.2754 5.87973C25.3643 3.68592 22.5574 1.64657 20.8075 3.36014C19.5534 4.58818 17.4361 3.90023 17.1433 2.16959ZM8.20776 13.4165C8.24083 13.4165 8.27355 13.415 8.30587 13.4121C8.28883 13.6086 8.38794 13.9437 8.5407 14.4602L9.625 18.1265C9.68623 18.3335 9.71684 18.437 9.7967 18.4967C9.87656 18.5564 9.9845 18.5564 10.2004 18.5564H14.4663H15.5874H19.8533C20.0692 18.5564 20.1771 18.5564 20.257 18.4967C20.3368 18.437 20.3675 18.3335 20.4287 18.1265L21.513 14.4602C21.6648 13.9468 21.7637 13.6126 21.7481 13.4156C21.7628 13.4162 21.7775 13.4165 21.7923 13.4165C22.3906 13.4165 22.8756 12.9315 22.8756 12.3333C22.8756 11.735 22.3906 11.25 21.7923 11.25C21.194 11.25 20.7091 11.735 20.7091 12.3333C20.7091 12.7501 20.9445 13.1119 21.2896 13.2931C21.1136 13.3937 20.8818 13.5737 20.5696 13.8162L20.5696 13.8162L18.3355 15.5513C18.0621 15.7637 17.9254 15.8699 17.7851 15.8362C17.6449 15.8025 17.5714 15.6458 17.4243 15.3324L15.5768 11.3957L15.5768 11.3957C15.5539 11.3469 15.5321 11.3004 15.5113 11.2564C15.8704 11.08 16.1176 10.7106 16.1176 10.2834C16.1176 9.68518 15.6326 9.20019 15.0344 9.20019C14.4361 9.20019 13.9511 9.68518 13.9511 10.2834C13.9511 10.7101 14.1978 11.0792 14.5564 11.2558C14.5354 11.3 14.5135 11.3467 14.4905 11.3957L12.6394 15.3401C12.4923 15.6535 12.4188 15.8103 12.2786 15.8439C12.1383 15.8776 12.0016 15.7715 11.7282 15.5591L9.4841 13.8162C9.15594 13.5613 8.91667 13.3755 8.73759 13.2783C9.06787 13.0927 9.29101 12.739 9.29101 12.3332C9.29101 11.735 8.80602 11.25 8.20776 11.25C7.60949 11.25 7.1245 11.735 7.1245 12.3332C7.1245 12.9315 7.60949 13.4165 8.20776 13.4165ZM10.0495 19.5434C9.88381 19.5434 9.7495 19.6777 9.7495 19.8434V20.9183C9.7495 21.084 9.88381 21.2183 10.0495 21.2183H20.0045C20.1702 21.2183 20.3045 21.084 20.3045 20.9183V19.8434C20.3045 19.6777 20.1702 19.5434 20.0045 19.5434H10.0495Z" fill="#FFB31A"/>
</svg>
