<svg aria-hidden="true" style="position: absolute; width: 0; height: 0; overflow: hidden;" version="1.1" xmlns="http://www.w3.org/2000/svg" xmlns:xlink="http://www.w3.org/1999/xlink">
<defs>
<symbol id="icon-art" viewBox="0 0 28 28">
<path d="M14 2.333c6.442 0 11.667 4.641 11.667 10.37-0.001 1.719-0.684 3.367-1.9 4.582s-2.864 1.898-4.582 1.899h-2.294c-1.076 0-1.945 0.869-1.945 1.945 0 0.492 0.195 0.946 0.492 1.283 0.312 0.35 0.506 0.804 0.506 1.309 0 1.077-0.895 1.945-1.945 1.945-6.442 0-11.667-5.224-11.667-11.667s5.224-11.667 11.667-11.667zM12.613 21.13c-0-0.562 0.11-1.118 0.325-1.638s0.53-0.991 0.927-1.388 0.869-0.712 1.388-0.927c0.519-0.215 1.076-0.325 1.638-0.325h2.294c1.1-0.001 2.154-0.438 2.932-1.215s1.215-1.832 1.217-2.931c0-4.376-4.121-8.038-9.333-8.038-2.408-0.002-4.725 0.927-6.464 2.593s-2.768 3.94-2.869 6.346c-0.102 2.406 0.73 4.759 2.323 6.566s3.822 2.928 6.222 3.13c-0.391-0.656-0.597-1.406-0.598-2.17v-0.001zM8.75 14c-0.464 0-0.909-0.184-1.237-0.513s-0.513-0.773-0.513-1.237c0-0.464 0.184-0.909 0.513-1.237s0.773-0.513 1.237-0.513c0.464 0 0.909 0.184 1.237 0.513s0.513 0.773 0.513 1.237c0 0.464-0.184 0.909-0.513 1.237s-0.773 0.513-1.237 0.513v0zM19.25 14c-0.464 0-0.909-0.184-1.237-0.513s-0.513-0.773-0.513-1.237c0-0.464 0.184-0.909 0.513-1.237s0.773-0.513 1.237-0.513c0.464 0 0.909 0.184 1.237 0.513s0.513 0.773 0.513 1.237c0 0.464-0.184 0.909-0.513 1.237s-0.773 0.513-1.237 0.513zM14 10.5c-0.464 0-0.909-0.184-1.237-0.513s-0.513-0.773-0.513-1.237c0-0.464 0.184-0.909 0.513-1.237s0.773-0.513 1.237-0.513c0.464 0 0.909 0.184 1.237 0.513s0.513 0.773 0.513 1.237c0 0.464-0.184 0.909-0.513 1.237s-0.773 0.513-1.237 0.513z"></path>
</symbol>
<symbol id="icon-collection" viewBox="0 0 28 28">
<path d="M2.333 4.667c0-0.309 0.123-0.606 0.342-0.825s0.516-0.342 0.825-0.342h21c0.309 0 0.606 0.123 0.825 0.342s0.342 0.516 0.342 0.825v6.417c-0.774 0-1.515 0.307-2.062 0.854s-0.854 1.289-0.854 2.062 0.307 1.515 0.854 2.062c0.547 0.547 1.289 0.854 2.062 0.854v6.417c0 0.309-0.123 0.606-0.342 0.825s-0.516 0.342-0.825 0.342h-21c-0.309 0-0.606-0.123-0.825-0.342s-0.342-0.516-0.342-0.825v-18.667zM9.432 22.167c0.12-0.342 0.344-0.638 0.639-0.847s0.649-0.322 1.012-0.322c0.362 0 0.716 0.112 1.011 0.322s0.519 0.506 0.639 0.847h10.599v-3.463c-0.876-0.434-1.614-1.105-2.13-1.936s-0.789-1.79-0.789-2.768 0.273-1.937 0.789-2.768c0.516-0.831 1.253-1.502 2.13-1.936v-3.463h-10.599c-0.12 0.342-0.344 0.638-0.639 0.847s-0.649 0.322-1.011 0.322-0.716-0.112-1.012-0.322c-0.296-0.209-0.519-0.506-0.639-0.847h-4.766v16.333h4.766zM11.083 12.833c-0.464 0-0.909-0.184-1.237-0.513s-0.513-0.773-0.513-1.237c0-0.464 0.184-0.909 0.513-1.237s0.773-0.513 1.237-0.513c0.464 0 0.909 0.184 1.237 0.513s0.513 0.773 0.513 1.237c0 0.464-0.184 0.909-0.513 1.237s-0.773 0.513-1.237 0.513zM11.083 18.667c-0.464 0-0.909-0.184-1.237-0.513s-0.513-0.773-0.513-1.237c0-0.464 0.184-0.909 0.513-1.237s0.773-0.513 1.237-0.513c0.464 0 0.909 0.184 1.237 0.513s0.513 0.773 0.513 1.237c0 0.464-0.184 0.909-0.513 1.237s-0.773 0.513-1.237 0.513z"></path>
</symbol>
<symbol id="icon-domain" viewBox="0 0 28 28">
<path d="M5.833 17.5v4.667h4.667v2.333h-7v-7h2.333zM24.5 17.5v7h-7v-2.333h4.667v-4.667h2.333zM15.166 7l5.133 12.833h-2.514l-1.401-3.5h-4.772l-1.399 3.5h-2.513l5.132-12.833h2.333zM13.999 10.366l-1.455 3.634h2.907l-1.452-3.634zM10.5 3.5v2.333h-4.667v4.667h-2.333v-7h7zM24.5 3.5v7h-2.333v-4.667h-4.667v-2.333h7z"></path>
</symbol>
<symbol id="icon-down-arrow" viewBox="0 0 28 28">
<path d="M14 15.367l5.775-5.775 1.65 1.65-7.425 7.425-7.425-7.425 1.65-1.65 5.775 5.775z"></path>
</symbol>
<symbol id="icon-music" viewBox="0 0 28 28">
<path d="M14 15.791v-12.291h9.333v3.5h-7v12.833c-0 1.027-0.339 2.026-0.965 2.841s-1.502 1.4-2.495 1.666c-0.992 0.266-2.044 0.197-2.993-0.197s-1.742-1.089-2.255-1.978c-0.514-0.89-0.719-1.924-0.585-2.942s0.601-1.964 1.327-2.691 1.672-1.193 2.691-1.327c1.018-0.134 2.053 0.072 2.942 0.585v0z"></path>
</symbol>
<symbol id="icon-photography" viewBox="0 0 28 28">
<path d="M2.333 7c0-0.644 0.531-1.167 1.157-1.167h21.019c0.639 0 1.157 0.519 1.157 1.167v16.333c0 0.644-0.531 1.167-1.157 1.167h-21.019c-0.153-0-0.304-0.031-0.445-0.090s-0.269-0.145-0.376-0.253-0.193-0.237-0.25-0.378c-0.058-0.141-0.087-0.293-0.086-0.445v-16.333zM4.667 8.167v14h18.667v-14h-18.667zM16.333 18.667c0.928 0 1.818-0.369 2.475-1.025s1.025-1.547 1.025-2.475c0-0.928-0.369-1.818-1.025-2.475s-1.547-1.025-2.475-1.025c-0.928 0-1.818 0.369-2.475 1.025s-1.025 1.547-1.025 2.475c0 0.928 0.369 1.818 1.025 2.475s1.547 1.025 2.475 1.025v0zM16.333 21c-1.547 0-3.031-0.615-4.125-1.709s-1.709-2.578-1.709-4.125 0.615-3.031 1.709-4.125c1.094-1.094 2.578-1.709 4.125-1.709s3.031 0.615 4.125 1.709c1.094 1.094 1.708 2.578 1.708 4.125s-0.615 3.031-1.708 4.125c-1.094 1.094-2.578 1.709-4.125 1.709v0zM4.667 2.333h7v2.333h-7v-2.333z"></path>
</symbol>
<symbol id="icon-world" viewBox="0 0 28 28">
<path d="M14 25.667c-6.444 0-11.667-5.223-11.667-11.667s5.223-11.667 11.667-11.667c6.444 0 11.667 5.223 11.667 11.667s-5.223 11.667-11.667 11.667zM11.328 22.945c-1.151-2.441-1.818-5.083-1.963-7.778h-4.626c0.227 1.795 0.971 3.486 2.14 4.867s2.715 2.392 4.449 2.911v0zM11.702 15.167c0.176 2.845 0.989 5.518 2.298 7.877 1.344-2.421 2.13-5.113 2.298-7.877h-4.597zM23.261 15.167h-4.626c-0.146 2.695-0.812 5.337-1.963 7.778 1.734-0.519 3.279-1.53 4.449-2.911s1.913-3.072 2.14-4.867v0zM4.739 12.833h4.626c0.146-2.695 0.812-5.337 1.963-7.778-1.734 0.519-3.279 1.53-4.449 2.911s-1.913 3.072-2.14 4.867v0zM11.703 12.833h4.594c-0.168-2.764-0.953-5.456-2.297-7.877-1.344 2.421-2.13 5.113-2.298 7.877h0.001zM16.672 5.055c1.151 2.441 1.818 5.083 1.963 7.778h4.626c-0.227-1.795-0.971-3.486-2.14-4.867s-2.715-2.392-4.449-2.911v0z"></path>
</symbol>
<symbol id="icon-facebook" viewBox="0 0 28 28">
<path d="M28.17 14.085c0-7.781-6.304-14.085-14.085-14.085s-14.085 6.304-14.085 14.085c0 7.030 5.151 12.857 11.884 13.915v-9.843h-3.578v-4.072h3.578v-3.103c0-3.53 2.101-5.48 5.32-5.48 1.541 0 3.153 0.275 3.153 0.275v3.465h-1.777c-1.749 0-2.295 1.086-2.295 2.2v2.644h3.906l-0.625 4.072h-3.282v9.843c6.734-1.058 11.884-6.885 11.884-13.915z"></path>
</symbol>
<symbol id="icon-instagram" viewBox="0 0 28 28">
<path d="M13.975 6.86c-3.966 0-7.165 3.199-7.165 7.165s3.199 7.165 7.165 7.165c3.966 0 7.165-3.199 7.165-7.165s-3.199-7.165-7.165-7.165zM13.975 18.683c-2.563 0-4.658-2.089-4.658-4.658s2.089-4.658 4.658-4.658c2.569 0 4.658 2.089 4.658 4.658s-2.095 4.658-4.658 4.658v0zM23.105 6.567c0 0.929-0.748 1.671-1.671 1.671-0.929 0-1.671-0.748-1.671-1.671s0.748-1.671 1.671-1.671c0.923 0 1.671 0.748 1.671 1.671zM27.85 8.263c-0.106-2.239-0.617-4.222-2.257-5.856-1.634-1.634-3.617-2.145-5.856-2.257-2.307-0.131-9.223-0.131-11.531 0-2.233 0.106-4.216 0.617-5.856 2.251s-2.145 3.617-2.257 5.856c-0.131 2.307-0.131 9.223 0 11.531 0.106 2.239 0.617 4.222 2.257 5.856s3.617 2.145 5.856 2.257c2.307 0.131 9.223 0.131 11.531 0 2.239-0.106 4.222-0.617 5.856-2.257 1.634-1.634 2.145-3.617 2.257-5.856 0.131-2.307 0.131-9.217 0-11.524v0zM24.869 22.263c-0.486 1.222-1.428 2.164-2.657 2.657-1.84 0.73-6.205 0.561-8.238 0.561s-6.404 0.162-8.238-0.561c-1.222-0.486-2.164-1.428-2.657-2.657-0.73-1.84-0.561-6.205-0.561-8.238s-0.162-6.404 0.561-8.238c0.486-1.222 1.428-2.164 2.657-2.657 1.84-0.73 6.205-0.561 8.238-0.561s6.404-0.162 8.238 0.561c1.222 0.486 2.164 1.428 2.657 2.657 0.73 1.84 0.561 6.205 0.561 8.238s0.168 6.404-0.561 8.238z"></path>
</symbol>
<symbol id="icon-tiktok" viewBox="0 0 25 28">
<path d="M24.5 11.479c-2.408 0.006-4.756-0.745-6.714-2.146v9.774c-0.001 1.81-0.554 3.577-1.586 5.064s-2.493 2.624-4.189 3.258c-1.695 0.634-3.544 0.736-5.299 0.291s-3.332-1.415-4.52-2.78c-1.189-1.365-1.932-3.061-2.131-4.86s0.156-3.616 1.018-5.208c0.862-1.592 2.189-2.883 3.804-3.7s3.441-1.122 5.234-0.874v4.916c-0.821-0.258-1.702-0.25-2.517 0.022s-1.525 0.796-2.025 1.495c-0.501 0.699-0.768 1.539-0.762 2.399s0.282 1.697 0.791 2.39c0.509 0.693 1.224 1.208 2.043 1.471s1.7 0.26 2.517-0.007c0.817-0.268 1.529-0.787 2.034-1.483s0.777-1.535 0.777-2.395v-19.107h4.813c-0.003 0.406 0.031 0.812 0.102 1.212v0c0.167 0.893 0.515 1.743 1.022 2.497s1.162 1.397 1.926 1.89c1.087 0.719 2.361 1.102 3.664 1.101v4.779z"></path>
</symbol>
<symbol id="icon-twitter" viewBox="0 0 34 28">
<path d="M30.919 6.981c0.022 0.306 0.022 0.612 0.022 0.918 0 9.337-7.107 20.095-20.095 20.095-4.002 0-7.719-1.159-10.846-3.171 0.569 0.066 1.115 0.087 1.706 0.087 3.302 0 6.341-1.115 8.768-3.018-3.105-0.066-5.707-2.099-6.604-4.898 0.437 0.066 0.875 0.109 1.334 0.109 0.634 0 1.268-0.088 1.859-0.24-3.236-0.656-5.663-3.499-5.663-6.932v-0.087c0.94 0.525 2.034 0.853 3.192 0.896-1.902-1.268-3.149-3.433-3.149-5.882 0-1.312 0.35-2.515 0.962-3.564 3.477 4.286 8.703 7.085 14.563 7.391-0.109-0.525-0.175-1.071-0.175-1.618 0-3.892 3.149-7.063 7.063-7.063 2.034 0 3.87 0.853 5.16 2.23 1.596-0.306 3.127-0.897 4.483-1.706-0.525 1.64-1.64 3.018-3.105 3.892 1.421-0.153 2.799-0.547 4.067-1.093-0.962 1.399-2.165 2.646-3.542 3.652v0z"></path>
</symbol>
<symbol id="icon-discord" viewBox="0 0 37 28">
<path d="M31.158 2.365c-0.010-0.020-0.027-0.035-0.048-0.044-2.383-1.093-4.897-1.873-7.48-2.319-0.023-0.004-0.048-0.001-0.069 0.009s-0.039 0.027-0.051 0.048c-0.342 0.621-0.653 1.26-0.931 1.913-2.785-0.423-5.617-0.423-8.402 0-0.28-0.654-0.596-1.293-0.946-1.913-0.012-0.020-0.030-0.037-0.051-0.047s-0.045-0.014-0.069-0.010c-2.583 0.445-5.098 1.225-7.481 2.319-0.020 0.009-0.038 0.023-0.049 0.042-4.764 7.115-6.069 14.055-5.429 20.909 0.002 0.017 0.007 0.033 0.015 0.048s0.019 0.028 0.033 0.038c2.774 2.054 5.877 3.622 9.177 4.637 0.023 0.007 0.048 0.007 0.071-0.001s0.043-0.022 0.058-0.041c0.709-0.964 1.337-1.985 1.877-3.053 0.007-0.015 0.012-0.031 0.012-0.047s-0.002-0.033-0.008-0.048c-0.006-0.015-0.015-0.029-0.027-0.041s-0.026-0.020-0.041-0.026c-0.99-0.379-1.949-0.836-2.867-1.366-0.017-0.010-0.031-0.024-0.041-0.040s-0.016-0.035-0.017-0.055c-0.001-0.019 0.002-0.039 0.011-0.056s0.020-0.033 0.036-0.045c0.193-0.144 0.385-0.294 0.569-0.446 0.016-0.013 0.036-0.022 0.057-0.025s0.042 0 0.062 0.009c6.014 2.745 12.526 2.745 18.469 0 0.019-0.009 0.041-0.013 0.062-0.010s0.041 0.011 0.058 0.025c0.184 0.152 0.377 0.303 0.571 0.448 0.016 0.012 0.028 0.027 0.036 0.044s0.012 0.037 0.011 0.056-0.007 0.038-0.017 0.055c-0.010 0.017-0.024 0.030-0.040 0.040-0.916 0.535-1.875 0.991-2.868 1.364-0.015 0.006-0.029 0.015-0.041 0.027s-0.021 0.026-0.027 0.041c-0.006 0.015-0.009 0.032-0.008 0.048s0.005 0.033 0.013 0.047c0.55 1.062 1.177 2.081 1.876 3.051 0.014 0.020 0.034 0.035 0.057 0.043s0.048 0.008 0.072 0.001c3.305-1.011 6.414-2.579 9.191-4.637 0.014-0.010 0.025-0.023 0.033-0.037s0.013-0.031 0.015-0.047c0.767-7.924-1.283-14.807-5.433-20.909zM12.281 19.099c-1.811 0-3.303-1.662-3.303-3.702s1.463-3.703 3.303-3.703c1.854 0 3.332 1.676 3.303 3.702 0 2.041-1.463 3.703-3.303 3.703zM24.492 19.099c-1.811 0-3.303-1.662-3.303-3.702s1.463-3.703 3.303-3.703c1.854 0 3.332 1.676 3.303 3.702 0 2.041-1.449 3.703-3.303 3.703z"></path>
</symbol>
<symbol id="icon-hert-fill" viewBox="0 0 28 28">
<path d="M14.001 5.284c2.741-2.461 6.976-2.379 9.616 0.266 2.639 2.646 2.73 6.86 0.275 9.609l-9.893 9.907-9.891-9.907c-2.455-2.749-2.362-6.97 0.275-9.609 2.643-2.641 6.869-2.73 9.618-0.266v0zM21.965 7.198c-1.75-1.752-4.573-1.824-6.405-0.179l-1.558 1.398-1.559-1.397c-1.838-1.647-4.655-1.575-6.41 0.18-1.738 1.738-1.826 4.521-0.224 6.36l8.19 8.203 8.19-8.202c1.603-1.84 1.515-4.619-0.225-6.363v0z"></path>
</symbol>
<symbol id="icon-history" viewBox="0 0 28 28">
<path d="M14 2.333c6.444 0 11.667 5.223 11.667 11.667s-5.223 11.667-11.667 11.667c-6.443 0-11.667-5.223-11.667-11.667h2.333c0 5.154 4.179 9.333 9.333 9.333s9.333-4.179 9.333-9.333c0-5.154-4.179-9.333-9.333-9.333-3.208 0-6.039 1.618-7.717 4.083h3.051v2.333h-7v-7h2.333v2.917c2.128-2.835 5.517-4.667 9.333-4.667zM15.167 8.167v5.349l3.784 3.784-1.651 1.651-4.466-4.468v-6.315h2.333z"></path>
</symbol>
<symbol id="icon-gallery" viewBox="0 0 28 28">
<path d="M20.311 22.167c-0.905-2.799-2.657-4.532-4.977-6.536 2.271-1.815 5.093-2.802 8-2.798v-9.333h1.176c0.639 0 1.157 0.519 1.157 1.159v18.683c-0.002 0.306-0.125 0.6-0.341 0.816s-0.51 0.34-0.816 0.342h-21.019c-0.307-0-0.601-0.123-0.818-0.34s-0.339-0.512-0.339-0.819v-18.683c0.002-0.306 0.125-0.6 0.341-0.816s0.51-0.34 0.816-0.342h3.509v-2.333h2.333v4.667h-4.667v8.167c6.090 0 11.272 2.872 13.198 8.167h2.445zM21 1.167v4.667h-9.333v-2.333h7v-2.333h2.333zM19.25 11.667c-0.464 0-0.909-0.184-1.237-0.513s-0.513-0.773-0.513-1.237c0-0.464 0.184-0.909 0.513-1.237s0.773-0.513 1.237-0.513c0.464 0 0.909 0.184 1.237 0.513s0.513 0.773 0.513 1.237c0 0.464-0.184 0.909-0.513 1.237s-0.773 0.513-1.237 0.513z"></path>
</symbol>
<symbol id="icon-list" viewBox="0 0 28 28">
<path d="M12.717 2.45l11.549 1.651 1.65 11.55-10.724 10.724c-0.219 0.219-0.516 0.342-0.825 0.342s-0.606-0.123-0.825-0.342l-11.55-11.55c-0.219-0.219-0.342-0.516-0.342-0.825s0.123-0.606 0.342-0.825l10.725-10.725zM16.016 12.35c0.217 0.217 0.474 0.388 0.757 0.506s0.587 0.178 0.893 0.177c0.306 0 0.61-0.060 0.893-0.178s0.54-0.289 0.757-0.506c0.217-0.217 0.388-0.474 0.506-0.757s0.178-0.587 0.177-0.893c0-0.306-0.060-0.61-0.178-0.893s-0.289-0.54-0.506-0.757c-0.217-0.217-0.474-0.388-0.757-0.506s-0.586-0.178-0.893-0.177c-0.619 0-1.212 0.246-1.65 0.684s-0.683 1.031-0.683 1.65c0 0.619 0.246 1.212 0.684 1.65z"></path>
</symbol>
<symbol id="icon-wallet" viewBox="0 0 28 28">
<path d="M25.667 7h-8.167c-1.857 0-3.637 0.737-4.95 2.050s-2.050 3.093-2.050 4.95 0.737 3.637 2.050 4.95c1.313 1.313 3.093 2.050 4.95 2.050h8.167v2.333c0 0.309-0.123 0.606-0.342 0.825s-0.516 0.342-0.825 0.342h-21c-0.309 0-0.606-0.123-0.825-0.342s-0.342-0.516-0.342-0.825v-18.667c0-0.309 0.123-0.606 0.342-0.825s0.516-0.342 0.825-0.342h21c0.309 0 0.606 0.123 0.825 0.342s0.342 0.516 0.342 0.825v2.333zM17.5 9.333h9.333v9.333h-9.333c-1.238 0-2.425-0.492-3.3-1.367s-1.367-2.062-1.367-3.3 0.492-2.425 1.367-3.3c0.875-0.875 2.062-1.367 3.3-1.367v0zM17.5 12.833v2.333h3.5v-2.333h-3.5z"></path>
</symbol>
<symbol id="icon-collections" viewBox="0 0 28 28">
<path d="M3.5 15.167h9.333v-11.667h-9.333v11.667zM3.5 24.5h9.333v-7h-9.333v7zM15.167 24.5h9.333v-11.667h-9.333v11.667zM15.167 3.5v7h9.333v-7h-9.333z"></path>
</symbol>
<symbol id="icon-heart-fill" viewBox="0 0 32 32">
<path fill="#ef4444" style="fill: var(--color1, #ef4444)" d="M16.001 6.039c3.132-2.812 7.972-2.719 10.989 0.304 3.016 3.024 3.12 7.84 0.315 10.981l-11.307 11.323-11.304-11.323c-2.805-3.141-2.7-7.965 0.315-10.981 3.020-3.019 7.851-3.12 10.992-0.304z"></path>
</symbol>
<symbol id="icon-heart" viewBox="0 0 32 32">
<path d="M16.001 6.039c3.132-2.812 7.972-2.719 10.989 0.304 3.016 3.024 3.12 7.84 0.315 10.981l-11.307 11.323-11.304-11.323c-2.805-3.141-2.7-7.965 0.315-10.981 3.020-3.019 7.851-3.12 10.992-0.304v0zM25.103 8.227c-2-2.003-5.227-2.084-7.32-0.204l-1.78 1.597-1.781-1.596c-2.1-1.883-5.32-1.8-7.325 0.205-1.987 1.987-2.087 5.167-0.256 7.268l9.36 9.375 9.36-9.373c1.832-2.103 1.732-5.279-0.257-7.272v0z"></path>
</symbol>
<symbol id="icon-ETH" viewBox="0 0 32 32">
<path fill="#8a92b2" style="fill: var(--color1, #8a92b2)" d="M15.997 1.345l-8.995 14.927 8.995-4.088v-10.838z"></path>
<path fill="#62688f" style="fill: var(--color2, #62688f)" d="M15.997 12.183l-8.995 4.088 8.995 5.318v-9.407zM24.993 16.272l-8.997-14.927v10.838l8.997 4.088z"></path>
<path fill="#454a75" style="fill: var(--color3, #454a75)" d="M15.997 21.59l8.997-5.318-8.997-4.088v9.407z"></path>
<path fill="#8a92b2" style="fill: var(--color1, #8a92b2)" d="M7.002 17.978l8.995 12.677v-7.362l-8.995-5.315z"></path>
<path fill="#62688f" style="fill: var(--color2, #62688f)" d="M15.997 23.293v7.362l9.002-12.677-9.002 5.315z"></path>
</symbol>
<symbol id="icon-right-sign" viewBox="0 0 32 32">
<path d="M13.333 20.229l12.256-12.257 1.887 1.885-14.143 14.143-8.485-8.485 1.885-1.885 6.6 6.6z"></path>
</symbol>
<symbol id="icon-transfer" viewBox="0 0 32 32">
<path d="M21.4 16.067l6.6 6.6-6.6 6.6-1.885-1.885 3.381-3.383-17.563 0.001v-2.667h17.563l-3.381-3.381 1.885-1.885zM10.6 2.733l1.885 1.885-3.381 3.381h17.563v2.667h-17.563l3.381 3.381-1.885 1.885-6.6-6.6 6.6-6.6z"></path>
</symbol>
<symbol id="icon-listing" viewBox="0 0 32 32">
<path d="M14.533 2.8l13.199 1.887 1.885 13.2-12.256 12.256c-0.25 0.25-0.589 0.39-0.943 0.39s-0.693-0.141-0.943-0.39l-13.2-13.2c-0.25-0.25-0.39-0.589-0.39-0.943s0.14-0.693 0.39-0.943l12.257-12.257zM15.476 5.629l-10.372 10.371 11.315 11.313 10.371-10.371-1.413-9.9-9.9-1.413zM18.303 14.115c-0.5-0.5-0.781-1.179-0.781-1.886 0-0.35 0.069-0.697 0.203-1.021s0.331-0.618 0.579-0.865 0.542-0.444 0.865-0.578c0.324-0.134 0.671-0.203 1.021-0.203 0.708 0 1.386 0.281 1.886 0.782s0.781 1.179 0.781 1.886-0.281 1.386-0.782 1.886c-0.5 0.5-1.179 0.781-1.887 0.781s-1.386-0.281-1.886-0.782v0z"></path>
</symbol>
<symbol id="icon-bids" viewBox="0 0 32 32">
<path d="M18.667 26.667v2.667h-16v-2.667h16zM19.448 0.915l10.371 10.371-1.885 1.888-1.413-0.472-3.303 3.299 7.543 7.543-1.885 1.885-7.541-7.543-3.205 3.205 0.377 1.509-1.887 1.885-10.371-10.371 1.887-1.885 1.507 0.376 8.392-8.391-0.471-1.413 1.885-1.887zM20.391 5.629l-9.428 9.427 4.713 4.715 9.428-9.427-4.713-4.715z"></path>
</symbol>
<symbol id="icon-likes" viewBox="0 0 32 32">
<path d="M16.001 6.039c3.132-2.812 7.972-2.719 10.989 0.304 3.016 3.024 3.12 7.84 0.315 10.981l-11.307 11.323-11.304-11.323c-2.805-3.141-2.7-7.965 0.315-10.981 3.020-3.019 7.851-3.12 10.992-0.304v0zM25.103 8.227c-2-2.003-5.227-2.084-7.32-0.204l-1.78 1.597-1.781-1.596c-2.1-1.883-5.32-1.8-7.325 0.205-1.987 1.987-2.087 5.167-0.256 7.268l9.36 9.375 9.36-9.373c1.832-2.103 1.732-5.279-0.257-7.272v0z"></path>
</symbol>
<symbol id="icon-purchases" viewBox="0 0 32 32">
<path d="M7.2 0h17.6c0.248 0 0.493 0.058 0.716 0.169s0.416 0.272 0.564 0.471l4.32 5.76v24c0 0.424-0.169 0.831-0.469 1.131s-0.707 0.469-1.131 0.469h-25.6c-0.424 0-0.831-0.169-1.131-0.469s-0.469-0.707-0.469-1.131v-24l4.32-5.76c0.149-0.199 0.342-0.36 0.564-0.471s0.467-0.169 0.716-0.169zM27.2 9.6h-22.4v19.2h22.4v-19.2zM26.4 6.4l-2.4-3.2h-16l-2.4 3.2h20.8zM11.2 12.8v3.2c0 1.273 0.506 2.494 1.406 3.394s2.121 1.406 3.394 1.406c1.273 0 2.494-0.506 3.394-1.406s1.406-2.121 1.406-3.394v-3.2h3.2v3.2c0 2.122-0.843 4.157-2.343 5.657s-3.535 2.343-5.657 2.343c-2.122 0-4.157-0.843-5.657-2.343s-2.343-3.535-2.343-5.657v-3.2h3.2z"></path>
</symbol>
<symbol id="icon-owned" viewBox="0 0 32 32">
<path d="M16.552 6.667h11.448c0.354 0 0.693 0.14 0.943 0.391s0.391 0.589 0.391 0.943v18.667c0 0.354-0.141 0.693-0.391 0.943s-0.589 0.391-0.943 0.391h-24c-0.354 0-0.693-0.141-0.943-0.391s-0.391-0.589-0.391-0.943v-21.333c0-0.354 0.14-0.693 0.391-0.943s0.589-0.391 0.943-0.391h9.885l2.667 2.667zM5.333 6.667v18.667h21.333v-16h-11.219l-2.667-2.667h-7.448zM17.333 17.333h4l-5.333 5.333-5.333-5.333h4v-5.333h2.667v5.333z"></path>
</symbol>
<symbol id="icon-on-sale" viewBox="0 0 32 32">
<path d="M4 4h24c0.354 0 0.693 0.14 0.943 0.391s0.391 0.589 0.391 0.943v21.333c0 0.354-0.141 0.693-0.391 0.943s-0.589 0.391-0.943 0.391h-24c-0.354 0-0.693-0.141-0.943-0.391s-0.391-0.589-0.391-0.943v-21.333c0-0.354 0.14-0.693 0.391-0.943s0.589-0.391 0.943-0.391v0zM5.333 6.667v18.667h21.333v-18.667h-21.333zM11.333 18.667h7.333c0.177 0 0.346-0.070 0.471-0.195s0.195-0.295 0.195-0.471-0.070-0.346-0.195-0.471c-0.125-0.125-0.295-0.195-0.471-0.195h-5.333c-0.884 0-1.732-0.351-2.357-0.976s-0.976-1.473-0.976-2.357c0-0.884 0.351-1.732 0.976-2.357s1.473-0.976 2.357-0.976h1.333v-2.667h2.667v2.667h3.333v2.667h-7.333c-0.177 0-0.346 0.070-0.471 0.195s-0.195 0.295-0.195 0.471 0.070 0.346 0.195 0.471c0.125 0.125 0.295 0.195 0.471 0.195h5.333c0.884 0 1.732 0.351 2.357 0.976s0.976 1.473 0.976 2.357-0.351 1.732-0.976 2.357c-0.625 0.625-1.473 0.976-2.357 0.976h-1.333v2.667h-2.667v-2.667h-3.333v-2.667z"></path>
</symbol>
<symbol id="icon-activity" viewBox="0 0 32 32">
<path d="M15.933 10.6l-1.885 1.885-3.381-3.381v17.563h-2.667v-17.563l-3.38 3.381-1.887-1.885 6.6-6.6 6.6 6.6zM29.267 21.4l-6.6 6.6-6.6-6.6 1.885-1.885 3.383 3.381-0.001-17.563h2.667v17.563l3.381-3.381 1.885 1.885z"></path>
</symbol>
<symbol id="icon-created" viewBox="0 0 32 32">
<path d="M6.667 6.667v4h18.667v-4h-18.667zM5.333 4h21.333c0.354 0 0.693 0.14 0.943 0.391s0.391 0.589 0.391 0.943v6.667c0 0.354-0.141 0.693-0.391 0.943s-0.589 0.391-0.943 0.391h-21.333c-0.354 0-0.693-0.14-0.943-0.391s-0.391-0.589-0.391-0.943v-6.667c0-0.354 0.14-0.693 0.391-0.943s0.589-0.391 0.943-0.391v0zM8 16h8c0.354 0 0.693 0.141 0.943 0.391s0.391 0.589 0.391 0.943v4h1.333v8h-5.333v-8h1.333v-2.667h-8c-0.354 0-0.693-0.141-0.943-0.391s-0.391-0.589-0.391-0.943v-2.667h2.667v1.333zM23.643 18.309l2.357-2.357 2.357 2.357c0.466 0.466 0.783 1.060 0.912 1.707s0.063 1.317-0.19 1.926c-0.252 0.609-0.679 1.13-1.228 1.496s-1.193 0.562-1.852 0.562-1.304-0.195-1.852-0.562c-0.548-0.366-0.975-0.887-1.228-1.496s-0.318-1.279-0.19-1.926c0.129-0.647 0.446-1.241 0.912-1.707v0z"></path>
</symbol>
<symbol id="icon-star" viewBox="0 0 32 32">
<path d="M16 22.667l-7.837 4.787 2.131-8.933-6.973-5.973 9.153-0.733 3.527-8.48 3.527 8.48 9.155 0.733-6.975 5.973 2.131 8.933-7.837-4.787zM16 19.541l3.756 2.293-1.021-4.28 3.343-2.863-4.387-0.352-1.691-4.063-1.691 4.063-4.387 0.352 3.343 2.863-1.021 4.28 3.756-2.293z"></path>
</symbol>
<symbol id="icon-user" viewBox="0 0 32 32">
<path d="M16 29.333c-7.364 0-13.333-5.969-13.333-13.333s5.969-13.333 13.333-13.333c7.364 0 13.333 5.969 13.333 13.333s-5.969 13.333-13.333 13.333zM16 26.667c2.829 0 5.542-1.124 7.543-3.124s3.124-4.714 3.124-7.543c0-2.829-1.124-5.542-3.124-7.542s-4.714-3.124-7.543-3.124c-2.829 0-5.542 1.124-7.542 3.124s-3.124 4.713-3.124 7.542c0 2.829 1.124 5.542 3.124 7.543s4.713 3.124 7.542 3.124v0zM9.333 17.333h2.667c0 1.061 0.421 2.078 1.172 2.828s1.768 1.172 2.828 1.172c1.061 0 2.078-0.421 2.828-1.172s1.172-1.768 1.172-2.828h2.667c0 1.768-0.702 3.464-1.953 4.714s-2.946 1.953-4.714 1.953-3.464-0.702-4.714-1.953c-1.25-1.25-1.953-2.946-1.953-4.714v0zM10.667 14.667c-0.53 0-1.039-0.211-1.414-0.586s-0.586-0.884-0.586-1.414c0-0.53 0.211-1.039 0.586-1.414s0.884-0.586 1.414-0.586c0.53 0 1.039 0.211 1.414 0.586s0.586 0.884 0.586 1.414c0 0.53-0.211 1.039-0.586 1.414s-0.884 0.586-1.414 0.586zM21.333 14.667c-0.53 0-1.039-0.211-1.414-0.586s-0.586-0.884-0.586-1.414c0-0.53 0.211-1.039 0.586-1.414s0.884-0.586 1.414-0.586c0.53 0 1.039 0.211 1.414 0.586s0.586 0.884 0.586 1.414c0 0.53-0.211 1.039-0.586 1.414s-0.884 0.586-1.414 0.586z"></path>
</symbol>
<symbol id="icon-create" viewBox="0 0 32 32">
<path d="M26.667 4l2.667 5.333v17.333c0 0.354-0.141 0.693-0.391 0.943s-0.589 0.391-0.943 0.391h-24c-0.354 0-0.693-0.141-0.943-0.391s-0.391-0.589-0.391-0.943v-17.328l2.667-5.339h21.333zM26.667 12h-21.333v13.333h21.333v-13.333zM16 13.333l5.333 5.333h-4v5.333h-2.667v-5.333h-4l5.333-5.333zM25.019 6.667h-18.037l-1.332 2.667h20.703l-1.333-2.667z"></path>
</symbol>
<symbol id="icon-advertise" viewBox="0 0 32 32">
<path d="M17.333 12h10.667l-13.333 20v-12h-9.333l12-20v12zM14.667 14.667v-5.040l-4.624 7.707h7.291v5.859l5.684-8.525h-8.351z"></path>
</symbol>
<symbol id="icon-wallet" viewBox="0 0 32 32">
<path d="M29.333 8h-9.333c-2.122 0-4.157 0.843-5.657 2.343s-2.343 3.535-2.343 5.657 0.843 4.157 2.343 5.657c1.5 1.5 3.535 2.343 5.657 2.343h9.333v2.667c0 0.354-0.141 0.693-0.391 0.943s-0.589 0.391-0.943 0.391h-24c-0.354 0-0.693-0.141-0.943-0.391s-0.391-0.589-0.391-0.943v-21.333c0-0.354 0.14-0.693 0.391-0.943s0.589-0.391 0.943-0.391h24c0.354 0 0.693 0.14 0.943 0.391s0.391 0.589 0.391 0.943v2.667zM20 10.667h10.667v10.667h-10.667c-1.415 0-2.771-0.562-3.771-1.562s-1.562-2.357-1.562-3.771 0.562-2.771 1.562-3.771c1-1 2.357-1.562 3.771-1.562v0zM20 14.667v2.667h4v-2.667h-4z"></path>
</symbol>
<symbol id="icon-gas-free" viewBox="0 0 32 32">
<path d="M29.333 26.667v2.667h-26.667v-2.667h1.333v-9.011c-0.821-0.548-1.494-1.29-1.959-2.16s-0.708-1.842-0.708-2.829c0-1.103 0.299-2.165 0.844-3.071l3.616-6.263c0.117-0.203 0.285-0.371 0.488-0.488s0.433-0.179 0.667-0.179h18.105c0.234 0 0.464 0.062 0.667 0.179s0.371 0.285 0.488 0.488l3.603 6.243c0.795 1.321 1.051 2.898 0.714 4.403s-1.241 2.822-2.525 3.677v9.011h1.333zM7.719 5.333l-3.244 5.617c-0.315 0.779-0.325 1.648-0.027 2.434s0.882 1.429 1.635 1.803 1.619 0.449 2.425 0.211c0.806-0.238 1.492-0.771 1.922-1.493 0.447-1.116 2.027-1.116 2.475 0 0.247 0.619 0.674 1.15 1.226 1.524s1.203 0.574 1.87 0.574 1.318-0.2 1.87-0.574c0.552-0.374 0.979-0.905 1.226-1.524 0.447-1.116 2.027-1.116 2.475 0 0.173 0.426 0.432 0.811 0.761 1.132s0.721 0.57 1.151 0.732c0.43 0.162 0.889 0.233 1.349 0.21s0.908-0.143 1.319-0.348 0.775-0.495 1.069-0.848c0.294-0.353 0.512-0.764 0.64-1.205s0.163-0.905 0.103-1.361c-0.060-0.456-0.213-0.894-0.451-1.288l-3.233-5.596h-16.561z"></path>
</symbol>
<symbol id="icon-commission" viewBox="0 0 32 32">
<path d="M12.44 15.333h2.893c1.591 0 3.117 0.632 4.243 1.757s1.757 2.651 1.757 4.243h-9.335l0.001 1.333h10.667v-1.333c-0.004-1.419-0.414-2.807-1.181-4h3.848c1.26-0 2.495 0.357 3.561 1.029s1.919 1.634 2.461 2.772c-3.153 4.161-8.259 6.865-14.021 6.865-3.681 0-6.8-0.787-9.333-2.167v-12.405c1.622 0.232 3.154 0.89 4.44 1.905v0zM6.667 25.333c0 0.354-0.14 0.693-0.391 0.943s-0.589 0.391-0.943 0.391h-2.667c-0.354 0-0.693-0.141-0.943-0.391s-0.391-0.589-0.391-0.943v-12c0-0.354 0.14-0.693 0.391-0.943s0.589-0.391 0.943-0.391h2.667c0.354 0 0.693 0.14 0.943 0.391s0.391 0.589 0.391 0.943v12zM24 6.667c1.061 0 2.078 0.421 2.828 1.172s1.172 1.768 1.172 2.828c0 1.061-0.421 2.078-1.172 2.828s-1.768 1.172-2.828 1.172c-1.061 0-2.078-0.421-2.828-1.172s-1.172-1.768-1.172-2.828c0-1.061 0.421-2.078 1.172-2.828s1.768-1.172 2.828-1.172zM14.667 2.667c1.061 0 2.078 0.421 2.828 1.172s1.172 1.768 1.172 2.828c0 1.061-0.421 2.078-1.172 2.828s-1.768 1.172-2.828 1.172c-1.061 0-2.078-0.421-2.828-1.172s-1.172-1.768-1.172-2.828c0-1.061 0.421-2.078 1.172-2.828s1.768-1.172 2.828-1.172v0z"></path>
</symbol>
<symbol id="icon-revenue" viewBox="0 0 32 32">
<path d="M22.667 21.333h2.667v-16h-13.333v2.667h10.667v13.333zM22.667 24v4c0 0.736-0.6 1.333-1.343 1.333h-15.981c-0.176 0.001-0.35-0.033-0.513-0.099s-0.311-0.165-0.436-0.288c-0.125-0.124-0.224-0.271-0.291-0.434s-0.103-0.336-0.103-0.512l0.004-18.667c0-0.736 0.6-1.333 1.343-1.333h3.987v-4c0-0.354 0.14-0.693 0.391-0.943s0.589-0.391 0.943-0.391h16c0.354 0 0.693 0.14 0.943 0.391s0.391 0.589 0.391 0.943v18.667c0 0.354-0.141 0.693-0.391 0.943s-0.589 0.391-0.943 0.391h-4zM9.333 21.333v2.667h2.667v1.333h2.667v-1.333h0.667c0.884 0 1.732-0.351 2.357-0.976s0.976-1.473 0.976-2.357-0.351-1.732-0.976-2.357c-0.625-0.625-1.473-0.976-2.357-0.976h-4c-0.177 0-0.346-0.070-0.471-0.195s-0.195-0.295-0.195-0.471 0.070-0.346 0.195-0.471c0.125-0.125 0.295-0.195 0.471-0.195h6v-2.667h-2.667v-1.333h-2.667v1.333h-0.667c-0.884 0-1.732 0.351-2.357 0.976s-0.976 1.473-0.976 2.357 0.351 1.732 0.976 2.357c0.625 0.625 1.473 0.976 2.357 0.976h4c0.177 0 0.346 0.070 0.471 0.195s0.195 0.295 0.195 0.471-0.070 0.346-0.195 0.471c-0.125 0.125-0.295 0.195-0.471 0.195h-6z"></path>
</symbol>
<symbol id="icon-peoples" viewBox="0 0 32 32">
<path d="M16 14.667c1.768 0 3.464 0.702 4.714 1.953s1.953 2.946 1.953 4.714v8h-13.333v-8c0-1.768 0.702-3.464 1.953-4.714s2.946-1.953 4.714-1.953zM7.051 18.675c-0.212 0.716-0.338 1.454-0.373 2.2l-0.011 0.459v8h-4v-6c-0-1.15 0.424-2.259 1.192-3.116s1.824-1.399 2.967-1.524l0.225-0.019zM24.949 18.675c1.187 0.072 2.301 0.595 3.115 1.46s1.268 2.010 1.269 3.198v6h-4v-8c0-0.924-0.133-1.816-0.384-2.659zM7.333 10.667c0.884 0 1.732 0.351 2.357 0.976s0.976 1.473 0.976 2.357c0 0.884-0.351 1.732-0.976 2.357s-1.473 0.976-2.357 0.976-1.732-0.351-2.357-0.976c-0.625-0.625-0.976-1.473-0.976-2.357s0.351-1.732 0.976-2.357 1.473-0.976 2.357-0.976v0zM24.667 10.667c0.884 0 1.732 0.351 2.357 0.976s0.976 1.473 0.976 2.357c0 0.884-0.351 1.732-0.976 2.357s-1.473 0.976-2.357 0.976-1.732-0.351-2.357-0.976c-0.625-0.625-0.976-1.473-0.976-2.357s0.351-1.732 0.976-2.357c0.625-0.625 1.473-0.976 2.357-0.976v0zM16 2.667c1.415 0 2.771 0.562 3.771 1.562s1.562 2.357 1.562 3.771-0.562 2.771-1.562 3.771c-1 1-2.357 1.562-3.771 1.562s-2.771-0.562-3.771-1.562c-1-1-1.562-2.357-1.562-3.771s0.562-2.771 1.562-3.771c1-1 2.357-1.562 3.771-1.562v0z"></path>
</symbol>
<symbol id="icon-properties" viewBox="0 0 32 32">
<path d="M8.227 24c0.275-0.781 0.786-1.457 1.462-1.935s1.483-0.735 2.311-0.735c0.828 0 1.635 0.257 2.311 0.735s1.187 1.154 1.462 1.935h13.56v2.667h-13.56c-0.275 0.781-0.786 1.457-1.462 1.935s-1.483 0.735-2.311 0.735-1.635-0.257-2.311-0.735c-0.676-0.478-1.187-1.154-1.462-1.935h-5.56v-2.667h5.56zM16.227 14.667c0.275-0.781 0.786-1.457 1.462-1.935s1.483-0.735 2.311-0.735c0.828 0 1.635 0.257 2.311 0.735s1.187 1.154 1.462 1.935h5.56v2.667h-5.56c-0.275 0.781-0.786 1.457-1.462 1.935s-1.483 0.735-2.311 0.735-1.635-0.257-2.311-0.735c-0.676-0.478-1.187-1.154-1.462-1.935h-13.56v-2.667h13.56zM8.227 5.333c0.275-0.781 0.786-1.457 1.462-1.935s1.483-0.735 2.311-0.735c0.828 0 1.635 0.257 2.311 0.735s1.187 1.154 1.462 1.935h13.56v2.667h-13.56c-0.275 0.781-0.786 1.457-1.462 1.935s-1.483 0.735-2.311 0.735c-0.828 0-1.635-0.257-2.311-0.735s-1.187-1.154-1.462-1.935h-5.56v-2.667h5.56z"></path>
</symbol>
<symbol id="icon-details" viewBox="0 0 32 32">
<path d="M26.667 29.333h-21.333c-0.354 0-0.693-0.141-0.943-0.391s-0.391-0.589-0.391-0.943v-24c0-0.354 0.14-0.693 0.391-0.943s0.589-0.391 0.943-0.391h21.333c0.354 0 0.693 0.14 0.943 0.391s0.391 0.589 0.391 0.943v24c0 0.354-0.141 0.693-0.391 0.943s-0.589 0.391-0.943 0.391zM25.333 26.667v-21.333h-18.667v21.333h18.667zM9.333 8h5.333v5.333h-5.333v-5.333zM9.333 16h13.333v2.667h-13.333v-2.667zM9.333 21.333h13.333v2.667h-13.333v-2.667zM17.333 9.333h5.333v2.667h-5.333v-2.667z"></path>
</symbol>
<symbol id="icon-price" viewBox="0 0 32 32">
<path d="M6.667 4v21.333h21.333v2.667h-24v-24h2.667zM27.057 8.391l1.885 1.885-7.609 7.609-4-3.999-5.724 5.723-1.885-1.885 7.609-7.609 4 3.999 5.724-5.723z"></path>
</symbol>
<symbol id="icon-offers" viewBox="0 0 32 32">
<path d="M10.667 5.333h17.333v2.667h-17.333v-2.667zM4 4.667h4v4h-4v-4zM4 14h4v4h-4v-4zM4 23.333h4v4h-4v-4zM10.667 14.667h17.333v2.667h-17.333v-2.667zM10.667 24h17.333v2.667h-17.333v-2.667z"></path>
</symbol>
<symbol id="icon-activities" viewBox="0 0 32 32">
<path d="M5.333 6.667v18.667h21.333v-18.667h-21.333zM4 4h24c0.354 0 0.693 0.14 0.943 0.391s0.391 0.589 0.391 0.943v21.333c0 0.354-0.141 0.693-0.391 0.943s-0.589 0.391-0.943 0.391h-24c-0.354 0-0.693-0.141-0.943-0.391s-0.391-0.589-0.391-0.943v-21.333c0-0.354 0.14-0.693 0.391-0.943s0.589-0.391 0.943-0.391v0zM19.724 13.057l-2.391-2.391h6.667v6.667l-2.391-2.391-5.152 5.152-2.828-2.828-3.772 3.771-1.885-1.885 5.657-5.657 2.828 2.829 3.267-3.267z"></path>
</symbol>
<symbol id="icon-items" viewBox="0 0 32 32">
<path d="M17.333 28v-13.333h10.667v13.333h-10.667zM4 17.333v-13.333h10.667v13.333h-10.667zM12 14.667v-8h-5.333v8h5.333zM4 28v-8h10.667v8h-10.667zM6.667 25.333h5.333v-2.667h-5.333v2.667zM20 25.333h5.333v-8h-5.333v8zM17.333 4h10.667v8h-10.667v-8zM20 6.667v2.667h5.333v-2.667h-5.333z"></path>
</symbol>
<symbol id="icon-metamask" viewBox="0 0 32 32">
<path fill="#e2761b" style="fill: var(--color1, #e2761b)" d="M27.496 3.561l-9.981 7.413 1.846-4.374 8.135-3.039z"></path>
<path fill="#e4761b" style="fill: var(--color2, #e4761b)" d="M4.454 3.561l9.901 7.483-1.755-4.444-8.145-3.039zM23.905 20.745l-2.658 4.073 5.688 1.565 1.635-5.547-4.665-0.090zM3.401 20.835l1.625 5.547 5.688-1.565-2.658-4.073-4.655 0.090z"></path>
<path fill="#e4761b" style="fill: var(--color2, #e4761b)" d="M10.392 13.863l-1.585 2.398 5.648 0.251-0.201-6.069-3.862 3.421zM21.557 13.863l-3.912-3.491-0.13 6.139 5.638-0.251-1.595-2.398zM10.713 24.818l3.391-1.655-2.929-2.287-0.461 3.942zM17.846 23.162l3.401 1.655-0.471-3.942-2.929 2.287z"></path>
<path fill="#d7c1b3" style="fill: var(--color3, #d7c1b3)" d="M21.246 24.818l-3.401-1.655 0.271 2.217-0.030 0.933 3.16-1.495zM10.713 24.818l3.16 1.495-0.020-0.933 0.251-2.217-3.391 1.655z"></path>
<path fill="#233447" style="fill: var(--color4, #233447)" d="M13.924 19.411l-2.829-0.833 1.996-0.913 0.833 1.745zM18.026 19.411l0.833-1.745 2.006 0.913-2.839 0.833z"></path>
<path fill="#cd6116" style="fill: var(--color5, #cd6116)" d="M10.713 24.818l0.482-4.073-3.14 0.090 2.658 3.982zM20.765 20.745l0.482 4.073 2.658-3.982-3.14-0.090zM23.152 16.261l-5.638 0.251 0.522 2.899 0.833-1.745 2.006 0.913 2.277-2.317zM11.095 18.578l2.006-0.913 0.823 1.745 0.532-2.899-5.648-0.251 2.287 2.317z"></path>
<path fill="#e4751f" style="fill: var(--color6, #e4751f)" d="M8.808 16.261l2.367 4.614-0.080-2.297-2.287-2.317zM20.875 18.578l-0.1 2.297 2.377-4.614-2.277 2.317zM14.455 16.512l-0.532 2.899 0.662 3.421 0.15-4.504-0.281-1.816zM17.515 16.512l-0.271 1.806 0.12 4.514 0.672-3.421-0.522-2.899z"></path>
<path fill="#f6851b" style="fill: var(--color7, #f6851b)" d="M18.036 19.411l-0.672 3.421 0.482 0.331 2.929-2.287 0.1-2.297-2.839 0.833zM11.095 18.578l0.080 2.297 2.929 2.287 0.482-0.331-0.662-3.421-2.829-0.833z"></path>
<path fill="#c0ad9e" style="fill: var(--color8, #c0ad9e)" d="M18.087 26.312l0.030-0.933-0.251-0.221h-3.782l-0.231 0.221 0.020 0.933-3.16-1.495 1.103 0.903 2.237 1.555h3.842l2.247-1.555 1.103-0.903-3.16 1.495z"></path>
<path fill="#161616" style="fill: var(--color9, #161616)" d="M17.846 23.162l-0.482-0.331h-2.779l-0.482 0.331-0.251 2.217 0.231-0.221h3.782l0.251 0.221-0.271-2.217z"></path>
<path fill="#763d16" style="fill: var(--color10, #763d16)" d="M27.917 11.456l0.853-4.093-1.274-3.802-9.65 7.162 3.712 3.14 5.246 1.535 1.164-1.354-0.502-0.361 0.802-0.732-0.622-0.482 0.802-0.612-0.532-0.401zM3.19 7.363l0.853 4.093-0.542 0.401 0.803 0.612-0.612 0.482 0.803 0.732-0.502 0.361 1.154 1.354 5.246-1.535 3.712-3.14-9.65-7.162-1.264 3.802z"></path>
<path fill="#f6851b" style="fill: var(--color7, #f6851b)" d="M26.804 15.398l-5.246-1.535 1.595 2.397-2.377 4.614 3.13-0.040h4.665l-1.766-5.437zM10.392 13.863l-5.246 1.535-1.745 5.437h4.655l3.12 0.040-2.367-4.614 1.585-2.398zM17.515 16.512l0.331-5.788 1.525-4.123h-6.771l1.505 4.123 0.351 5.788 0.12 1.826 0.010 4.494h2.779l0.020-4.494 0.13-1.826z"></path>
</symbol>
<symbol id="icon-mbl-wallet" viewBox="0 0 32 32">
<path fill="#3c99fc" style="fill: var(--color1, #3c99fc)" d="M8.178 10.687c4.423-4.369 11.595-4.369 16.018 0l0.532 0.526c0.221 0.218 0.221 0.573 0 0.791l-1.821 1.799c-0.111 0.109-0.29 0.109-0.4 0l-0.733-0.724c-3.086-3.048-8.089-3.048-11.175 0l-0.785 0.775c-0.111 0.109-0.29 0.109-0.4 0l-1.821-1.799c-0.221-0.218-0.221-0.573 0-0.791l0.584-0.577zM27.962 14.407l1.621 1.601c0.221 0.218 0.221 0.573 0 0.791l-7.308 7.219c-0.221 0.218-0.58 0.218-0.801 0l-5.187-5.124c-0.055-0.055-0.145-0.055-0.2 0l-5.187 5.124c-0.221 0.218-0.58 0.218-0.801 0l-7.308-7.219c-0.221-0.218-0.221-0.573 0-0.791l1.621-1.601c0.221-0.218 0.58-0.218 0.801 0l5.187 5.123c0.055 0.055 0.145 0.055 0.2 0l5.187-5.123c0.221-0.218 0.58-0.218 0.801-0 0 0 0 0 0 0l5.187 5.123c0.055 0.055 0.145 0.055 0.2 0l5.187-5.123c0.221-0.218 0.58-0.218 0.801 0z"></path>
</symbol>
<symbol id="icon-torus" viewBox="0 0 32 32">
<path fill="#0364ff" style="fill: var(--color2, #0364ff)" d="M18.702 6h-10.702v5.874h10.702v-5.874z"></path>
<path fill="#0364ff" style="fill: var(--color2, #0364ff)" d="M18.701 6.008h-5.81v19.472h5.81v-19.472z"></path>
<path fill="#0364ff" style="fill: var(--color2, #0364ff)" d="M23.044 11.871c1.604 0 2.904-1.314 2.904-2.936s-1.3-2.936-2.904-2.936-2.904 1.314-2.904 2.936c0 1.621 1.3 2.936 2.904 2.936z"></path>
</symbol>
<symbol id="icon-proparties-icon" viewBox="0 0 28 28">
<path d="M9.333 4.667h15.167v2.333h-15.167v-2.333zM5.833 3.5v3.5h1.167v1.167h-3.5v-1.167h1.167v-2.333h-1.167v-1.167h2.333zM3.5 16.333v-2.917h2.333v-0.583h-2.333v-1.167h3.5v2.917h-2.333v0.583h2.333v1.167h-3.5zM5.833 22.75h-2.333v-1.167h2.333v-0.583h-2.333v-1.167h3.5v4.667h-3.5v-1.167h2.333v-0.583zM9.333 12.833h15.167v2.333h-15.167v-2.333zM9.333 21h15.167v2.333h-15.167v-2.333z"></path>
</symbol>
<symbol id="icon-level-icon" viewBox="0 0 28 28">
<path d="M14 21.303l-8.229 4.606 1.837-9.249-6.924-6.403 9.365-1.111 3.95-8.563 3.95 8.563 9.365 1.111-6.924 6.403 1.838 9.249-8.229-4.606z"></path>
</symbol>
<symbol id="icon-stats-icon" viewBox="0 0 28 28">
<path d="M2.333 15.167h7v9.333h-7v-9.333zM10.5 3.5h7v21h-7v-21zM18.667 9.333h7v15.167h-7v-15.167z"></path>
</symbol>
<symbol id="icon-apple" viewBox="0 0 32 32">
<path d="M15.499 9.629c-1.168 0-2.976-1.328-4.88-1.28-2.512 0.032-4.816 1.456-6.112 3.712-2.608 4.528-0.672 11.216 1.872 14.896 1.248 1.792 2.72 3.808 4.672 3.744 1.872-0.080 2.576-1.216 4.848-1.216 2.256 0 2.896 1.216 4.88 1.168 2.016-0.032 3.296-1.824 4.528-3.632 1.424-2.080 2.016-4.096 2.048-4.208-0.048-0.016-3.92-1.504-3.968-5.984-0.032-3.744 3.056-5.536 3.2-5.616-1.76-2.576-4.464-2.864-5.408-2.928-2.464-0.192-4.528 1.344-5.68 1.344v0zM19.659 5.853c1.040-1.248 1.728-2.992 1.536-4.72-1.488 0.064-3.28 0.992-4.352 2.24-0.96 1.104-1.792 2.88-1.568 4.576 1.648 0.128 3.344-0.848 4.384-2.096v0z"></path>
</symbol>
<symbol id="icon-ada" viewBox="0 0 2000 1848" width="20" height="20">
<g fill="#164BB9"><path d="M975.46 5.46c43.59-22.73 96.8 30 73.64 73.55-13.45 35.5-64.45 44.94-90.5 17.88C931 70.92 940 19.59 975.46 5.46M506.61 56c26.48-10.9 60 13.36 57.3 42.22 2.81 31.33-35.5 54.39-62.49 39.5-35.76-13.85-31.67-71.9 5.19-81.72M1466.87 138.6c-41.38-5-47.93-70.06-8.09-83.16 30.9-15.07 59.25 13.19 63.77 42.48-6.48 25.01-27.42 47.91-55.68 40.68M613.29 255.55c44.27-28 107.44 13.7 100.63 65.12-2.3 51.92-71.26 82-110.17 46.9-37.62-27.57-31.92-90.82 9.54-112.02M1289.1 285.26c19.75-50.9 99.78-52.44 122.26-2.89 22.22 38.56-5.11 86.31-44.7 99.42-52.44 9.79-102.25-46.9-77.56-96.53M919 378.9c-.43-43.75 39.42-76.35 81-79.33 27.58 5.53 57.64 17.28 69.47 45.11 22.05 38.39 2.47 91.25-37.37 108.87-18.22 10.21-39.76 6.38-59.6 5.19-30.33-14.89-55.87-44.09-53.5-79.84M221.75 442.65c40.44-24.86 95 20.51 79.69 64.44-8.43 38-59.51 53.46-88.71 29.2-31.17-22.73-26.23-77.38 9.02-93.64M1719 442.57c34.31-26.64 90.93 3.92 86.84 47.24 2.3 39.5-46.65 69.29-80.71 48.95-37.51-16.86-41.34-74.57-6.13-96.19M1115.08 521.22c56.62-20.34 123.87 4 156.14 54.48 42.57 61.71 19.92 155.69-46.14 191.1-68.45 41.88-168.4 6.38-193.68-70.06-28.7-68.43 13.11-154.07 83.68-175.52M782.88 527.95c62.75-29.62 147.2-4.77 177.51 59.42 35.67 62.48 8.09 149.48-55.68 181.74-63.85 36.26-153.93 8.77-184.83-58.31-34.65-64.87-3.88-152.98 63-182.85M450.25 641.67c4.77-40.43 42.91-66.74 81.39-69.46 41.46 5 74.58 37.2 79.09 79.16-2.72 41.54-34.82 82.14-78.84 81.89-48.43 4.17-90.89-44.01-81.64-91.59M1432.73 581c49.72-28.94 118.76 13.19 116.55 70.31 3.41 60.52-73 103.17-122.51 67.67-51.43-29.56-47.42-112.81 5.96-137.98M647.69 794.3c58.15-16 124.64 11.41 153.16 64.86 31.24 53.8 18.47 128.54-30.05 168-62.23 57.88-177 34.64-210.12-44.35-38.06-72.41 8.17-169.45 87.01-188.51M1277.78 794c56.53-16.17 122.94 5.62 153.33 57.12 40.18 58.9 21 146.75-38.82 184.72-62.66 44.09-159.72 20.94-194.2-48-41.8-71.31.26-172.09 79.69-193.84M273.68 861.2c50.23-19 105.91 36.43 85.56 86.23-12.43 45.37-76.37 62.14-109.4 28.69-38.65-31.41-24.34-101.3 23.84-114.92M1635.18 933.47c-1.45-41.62 29-78.48 71.68-80.78 34.4 5.45 67.85 33.2 65.13 70.65 3.15 49.46-56.45 83.08-98.59 59.84-19.75-10.04-29.88-30.3-38.22-49.71M26.7 885.63c30.22-13.19 67.6 13 60.7 46.56-1.62 38-57.72 52.61-78.33 20.86C-9.14 931 1.76 897 26.7 885.63zM1932.13 884.87c21.28-15.15 55.42-4.26 63.85 20.6 14.3 27.15-11.92 64.35-42.48 59.76-42.9 3.91-56.78-61.47-21.37-80.36M811.83 1067.28c79.52-20.68 165 45.63 165.5 127.51 5.19 82.74-79 156.11-160.4 137-62.92-10.13-112.29-70.74-110.25-134.32-.17-60.81 45.72-117.33 105.15-130.19M1126.75 1067.11c80.71-22.56 168.74 44.94 167.46 128.71 4.26 81.21-77.3 152.11-157 136-75-9.7-130.34-92.1-109.4-164.88 10.57-48.5 51.09-87.94 98.94-99.83M519.56 1117.51c55.85-9.53 108.21 52.78 85.56 105.81-16.52 56.51-98.76 71.84-135.12 25.68-42.65-44.33-10.81-125.37 49.56-131.49M1443.11 1120c49.8-20.86 110.93 22.22 107.1 76.27 2 59.5-73.47 100.53-122.17 65.8-55.16-31.18-45.12-122.94 15.07-142.07M1701.25 1378.92c-19.5-36.35 15.92-84.53 56.28-77.8 20.09-.34 34.14 15.49 47 28.77 2.64 21.54 7.07 47.24-10.81 63.84-24.28 30.73-79.28 21.96-92.47-14.81M221.58 1311.24c37.72-25.11 92 12.34 83.52 56.44-4.51 39-53.64 61.29-86 39.16-34.73-20.09-33.45-77.29 2.48-95.6M966.78 1392.88c49.38-21.79 112.29 21.2 107.61 75.59 3.66 60.1-74.15 101.72-122.43 65.63-53.63-30.99-44.69-122.16 14.82-141.22M621.63 1473.4c42.06-22.13 98.5 16.09 94.67 63.16 1.28 38.65-36.44 71.59-74.58 65.88-31.59-.68-52.19-29-62.32-55.93.52-29.35 12.6-62.04 42.23-73.11M1320.77 1474.08c43.25-26.73 104.72 11.66 100.63 62 1.11 52.61-68.36 86.31-108.63 51.75-38.99-27.09-34.23-92.21 8-113.75M1442.35 1774.65c-19.24-29.11 3.41-64.18 34.65-70.82 25.12 5.11 51.68 24 46.4 53.12-3.66 39.41-61.3 51.5-81.05 17.7M477.24 1749.37c7.66-23.07 26.22-46 53.38-40 39.59 2.81 51.34 62.48 16.69 80.87-31.16 21.01-67.31-7.76-70.07-40.87M942.85 1775.84c7.58-34.13 51.76-50.73 80.88-32.6 19.24 8.26 24.86 29.79 29.8 48.09-2.64 9.53-5 19.07-7.32 28.6-11.92 14.13-27.24 28.26-47.08 27.75-36.87 4.32-70.13-37.36-56.28-71.84"/>
</g>
</symbol>
<symbol id="icon-royalty" viewBox="0 0 30 30" width="30" height="30">
<path fill-rule="evenodd" clip-rule="evenodd" d="M17.1433 2.16959C16.7348 -0.245308 13.2653 -0.245308 12.8567 2.16959C12.564 3.90023 10.4467 4.58818 9.19261 3.36014C7.44267 1.64657 4.63575 3.68592 5.72469 5.87973C6.50509 7.45193 5.19654 9.25299 3.46013 8.99663C1.03719 8.6389 -0.0349582 11.9386 2.1355 13.0734C3.69098 13.8866 3.69098 16.1129 2.1355 16.9261C-0.0349591 18.0609 1.03719 21.3606 3.46013 21.0029C5.19654 20.7465 6.50509 22.5476 5.72469 24.1198C4.63575 26.3136 7.44267 28.3529 9.19261 26.6394C10.4467 25.4113 12.564 26.0993 12.8567 27.8299C13.2653 30.2448 16.7348 30.2448 17.1433 27.8299C17.4361 26.0993 19.5534 25.4113 20.8075 26.6394C22.5574 28.3529 25.3643 26.3136 24.2754 24.1198C23.495 22.5476 24.8035 20.7465 26.5399 21.0029C28.9629 21.3606 30.035 18.0609 27.8646 16.9261C26.3091 16.1129 26.3091 13.8866 27.8646 13.0734C30.035 11.9386 28.9629 8.6389 26.5399 8.99663C24.8035 9.25299 23.495 7.45193 24.2754 5.87973C25.3643 3.68592 22.5574 1.64657 20.8075 3.36014C19.5534 4.58818 17.4361 3.90023 17.1433 2.16959ZM8.20776 13.4165C8.24083 13.4165 8.27355 13.415 8.30587 13.4121C8.28883 13.6086 8.38794 13.9437 8.5407 14.4602L9.625 18.1265C9.68623 18.3335 9.71684 18.437 9.7967 18.4967C9.87656 18.5564 9.9845 18.5564 10.2004 18.5564H14.4663H15.5874H19.8533C20.0692 18.5564 20.1771 18.5564 20.257 18.4967C20.3368 18.437 20.3675 18.3335 20.4287 18.1265L21.513 14.4602C21.6648 13.9468 21.7637 13.6126 21.7481 13.4156C21.7628 13.4162 21.7775 13.4165 21.7923 13.4165C22.3906 13.4165 22.8756 12.9315 22.8756 12.3333C22.8756 11.735 22.3906 11.25 21.7923 11.25C21.194 11.25 20.7091 11.735 20.7091 12.3333C20.7091 12.7501 20.9445 13.1119 21.2896 13.2931C21.1136 13.3937 20.8818 13.5737 20.5696 13.8162L20.5696 13.8162L18.3355 15.5513C18.0621 15.7637 17.9254 15.8699 17.7851 15.8362C17.6449 15.8025 17.5714 15.6458 17.4243 15.3324L15.5768 11.3957L15.5768 11.3957C15.5539 11.3469 15.5321 11.3004 15.5113 11.2564C15.8704 11.08 16.1176 10.7106 16.1176 10.2834C16.1176 9.68518 15.6326 9.20019 15.0344 9.20019C14.4361 9.20019 13.9511 9.68518 13.9511 10.2834C13.9511 10.7101 14.1978 11.0792 14.5564 11.2558C14.5354 11.3 14.5135 11.3467 14.4905 11.3957L12.6394 15.3401C12.4923 15.6535 12.4188 15.8103 12.2786 15.8439C12.1383 15.8776 12.0016 15.7715 11.7282 15.5591L9.4841 13.8162C9.15594 13.5613 8.91667 13.3755 8.73759 13.2783C9.06787 13.0927 9.29101 12.739 9.29101 12.3332C9.29101 11.735 8.80602 11.25 8.20776 11.25C7.60949 11.25 7.1245 11.735 7.1245 12.3332C7.1245 12.9315 7.60949 13.4165 8.20776 13.4165ZM10.0495 19.5434C9.88381 19.5434 9.7495 19.6777 9.7495 19.8434V20.9183C9.7495 21.084 9.88381 21.2183 10.0495 21.2183H20.0045C20.1702 21.2183 20.3045 21.084 20.3045 20.9183V19.8434C20.3045 19.6777 20.1702 19.5434 20.0045 19.5434H10.0495Z" fill="#FFB31A"/>
</g>
</symbol>

</defs>
</svg>
